<?xml version="1.0" encoding="UTF-8"?>
<svg xmlns="http://www.w3.org/2000/svg" xmlns:xlink="http://www.w3.org/1999/xlink" width="50px" height="45px" viewBox="0 0 50 45" version="1.1">
<g id="surface1">
<path style=" stroke:none;fill-rule:nonzero;fill:rgb(100%,100%,100%);fill-opacity:1;" d="M 6.511719 0.277344 C 4.332031 1.578125 0.0390625 6.523438 0 7.824219 L 0 9.96875 C 0 12.691406 2.535156 15.085938 4.839844 15.085938 C 7.605469 15.085938 9.910156 12.785156 9.910156 10.058594 C 9.910156 12.785156 12.132812 15.085938 14.898438 15.085938 C 17.664062 15.085938 19.816406 12.785156 19.816406 10.058594 C 19.816406 12.785156 22.183594 15.085938 24.949219 15.085938 L 25 15.085938 C 27.765625 15.085938 30.128906 12.785156 30.128906 10.058594 C 30.128906 12.785156 32.285156 15.085938 35.050781 15.085938 C 37.816406 15.085938 40.039062 12.785156 40.039062 10.058594 C 40.039062 12.785156 42.34375 15.085938 45.109375 15.085938 C 47.410156 15.085938 49.949219 12.695312 49.949219 9.96875 L 49.949219 7.824219 C 49.90625 6.523438 45.613281 1.578125 43.4375 0.277344 C 36.664062 0.0390625 31.96875 0 24.972656 0 C 17.976562 0 8.4375 0.109375 6.511719 0.277344 Z M 19.78125 13.804688 C 19.519531 14.265625 19.191406 14.691406 18.808594 15.0625 C 17.765625 16.085938 16.335938 16.71875 14.757812 16.71875 C 13.238281 16.722656 11.78125 16.125 10.695312 15.058594 C 10.320312 14.6875 10.03125 14.292969 9.769531 13.828125 L 9.765625 13.828125 C 9.503906 14.292969 9.136719 14.691406 8.757812 15.0625 C 7.671875 16.125 6.214844 16.722656 4.699219 16.722656 C 4.507812 16.722656 4.308594 16.667969 4.148438 16.613281 C 3.925781 18.9375 3.832031 21.15625 3.800781 22.773438 L 3.800781 22.785156 C 3.796875 23.605469 3.792969 24.28125 3.789062 25.21875 C 3.832031 30.09375 3.308594 41.015625 5.929688 43.699219 C 9.992188 44.648438 17.472656 45.082031 24.972656 45.085938 L 24.976562 45.085938 C 32.476562 45.082031 39.957031 44.648438 44.019531 43.699219 C 46.640625 41.015625 46.117188 30.09375 46.160156 25.21875 C 46.15625 24.28125 46.152344 23.605469 46.148438 22.78125 L 46.148438 22.773438 C 46.113281 21.15625 46.019531 18.933594 45.796875 16.613281 C 45.636719 16.667969 45.441406 16.71875 45.25 16.71875 C 43.734375 16.722656 42.273438 16.125 41.191406 15.0625 C 40.8125 14.691406 40.445312 14.292969 40.179688 13.828125 C 39.917969 14.289062 39.628906 14.6875 39.25 15.058594 C 38.167969 16.125 36.707031 16.722656 35.191406 16.71875 C 33.613281 16.71875 32.183594 16.085938 31.136719 15.058594 C 30.757812 14.6875 30.429688 14.265625 30.164062 13.804688 C 29.902344 14.265625 29.578125 14.6875 29.203125 15.058594 C 28.117188 16.125 26.660156 16.722656 25.140625 16.71875 C 25.085938 16.71875 25.03125 16.71875 24.976562 16.714844 L 24.972656 16.714844 C 24.917969 16.71875 24.863281 16.71875 24.808594 16.71875 C 23.289062 16.722656 21.832031 16.125 20.746094 15.0625 C 20.371094 14.6875 20.046875 14.265625 19.785156 13.804688 Z M 15.613281 19.214844 L 15.617188 19.214844 C 17.265625 19.21875 18.734375 19.214844 20.550781 21.207031 C 21.984375 21.058594 23.476562 20.980469 24.972656 20.984375 L 24.976562 20.984375 C 26.472656 20.980469 27.964844 21.058594 29.398438 21.207031 C 31.214844 19.214844 32.679688 19.21875 34.332031 19.214844 L 34.335938 19.214844 C 35.117188 19.214844 38.238281 19.214844 40.410156 25.34375 L 42.746094 33.75 C 44.480469 40.007812 42.195312 40.160156 39.34375 40.164062 C 35.117188 40.007812 32.773438 36.925781 32.773438 33.847656 C 30.433594 34.230469 27.703125 34.425781 24.972656 34.425781 C 22.242188 34.425781 19.511719 34.230469 17.171875 33.847656 C 17.171875 36.925781 14.832031 40.007812 10.605469 40.164062 C 7.753906 40.160156 5.46875 40.007812 7.199219 33.75 L 9.535156 25.34375 C 11.710938 19.214844 14.832031 19.214844 15.613281 19.214844 Z M 24.972656 24.03125 C 24.96875 24.035156 20.523438 28.132812 19.722656 29.589844 L 22.636719 29.472656 L 22.636719 32.023438 C 22.636719 32.140625 23.804688 32.09375 24.972656 32.039062 L 24.976562 32.039062 C 26.144531 32.09375 27.3125 32.140625 27.3125 32.023438 L 27.3125 29.472656 L 30.222656 29.589844 C 29.425781 28.132812 24.972656 24.03125 24.972656 24.03125 Z M 24.972656 24.03125 "/>
</g>
</svg>
